<svg width="100" height="100" xmlns="http://www.w3.org/2000/svg">
 <g>
  <title>Layer 1</title>
  <g transform="rotate(-8.42697 50.1048 50.1821)" stroke="null" id="svg_24">
   <path stroke="#444444" id="svg_11" d="m68.20338,25.28415c-0.02161,-0.00391 -0.02906,-0.03121 -0.01618,-0.04756c0.0171,-0.0253 0.05367,-0.04234 0.08233,-0.02639c0.00057,-0.08908 0.00024,-0.17816 0.00033,-0.26724c0.07145,-0.01441 0.14306,-0.02809 0.21455,-0.04238c-0.00015,0.09984 -0.00031,0.19967 -0.00046,0.29951c-0.0112,0.0302 -0.04739,0.05113 -0.07889,0.04177c-0.01876,-0.00561 -0.02326,-0.02983 -0.01281,-0.04466c0.0143,-0.02213 0.04093,-0.03732 0.06769,-0.03318c0.00764,-0.00078 0.01889,0.01159 0.01566,-0.0024c0,-0.06002 0,-0.12003 0,-0.18005c-0.06559,0.0132 -0.13131,0.02578 -0.19694,0.03884c-0.00029,0.0724 0.00073,0.14483 -0.00076,0.21721c-0.00452,0.0243 -0.02841,0.04113 -0.05147,0.04603c-0.00761,0.00091 -0.01543,0.00169 -0.02305,0.00049l0,0l0,0zm0.1711,-0.30212c0.0337,-0.00663 0.06742,-0.01318 0.10111,-0.01989c0.00428,-0.01708 -0.0149,-0.00599 -0.02428,-0.00557c-0.05754,0.01136 -0.11512,0.02255 -0.17266,0.03395c-0.00428,0.01708 0.0149,0.00599 0.02428,0.00557c0.02385,-0.0047 0.0477,-0.00939 0.07155,-0.01406l0,0zm0,-0.02989c0.0337,-0.00663 0.06742,-0.01318 0.10111,-0.01989c0.00428,-0.01708 -0.0149,-0.00599 -0.02428,-0.00557c-0.05754,0.01136 -0.11512,0.02255 -0.17266,0.03395c-0.00428,0.01708 0.0149,0.00599 0.02428,0.00557c0.02385,-0.0047 0.0477,-0.00939 0.07155,-0.01406l0,0z" fill="#fff"/>
   <path stroke="#444444" id="svg_12" d="m60.02399,21.51286c0,-0.06364 0,-0.12728 0,-0.19092c0.0149,0 0.02979,0 0.04468,0c0,0.12728 0,0.25456 0,0.38184c-0.0149,0 -0.02979,0 -0.04468,0c0,-0.06364 0,-0.12728 0,-0.19092l0,0zm0.06601,0c0,-0.06364 0,-0.12728 0,-0.19092c0.0109,-0.00317 0.01663,0.00237 0.01425,0.01285c0.00016,0.05833 0.00032,0.11667 0.00048,0.175c0.02756,-0.01969 0.038,-0.05379 0.04654,-0.08494c0.0049,0.02028 0.0127,0.04499 0.03507,0.0516c0.02133,0.0064 0.04022,-0.01367 0.04,-0.03423c0.00373,-0.02628 0.00424,-0.05358 -0.00147,-0.07957c-0.00535,-0.01644 -0.02139,-0.03002 -0.03922,-0.02893c-0.01468,-0.00676 -0.03114,0.0141 -0.01233,0.02172c0.01582,0.01681 -0.00257,0.04558 -0.02456,0.03885c-0.02132,-0.00457 -0.027,-0.03268 -0.01466,-0.04858c0.0177,-0.0231 0.05032,-0.02601 0.07713,-0.02264c0.03489,0.00397 0.06142,0.03542 0.06519,0.06941c0.0048,0.03034 -0.00303,0.06461 -0.02842,0.084c-0.0213,0.01793 -0.0526,0.02017 -0.07762,0.00921c-0.00609,0.00916 -0.01217,0.01831 -0.01825,0.02747c0.00598,0.00893 0.01196,0.01786 0.01794,0.0268c0.0303,-0.01358 0.0699,-0.00652 0.08994,0.02111c0.02821,0.03722 0.02271,0.09704 -0.01394,0.12674c-0.02302,0.01879 -0.05537,0.01886 -0.08272,0.01135c-0.0207,-0.00552 -0.0409,-0.02565 -0.03449,-0.0486c0.00323,-0.01999 0.03072,-0.02751 0.04412,-0.01264c0.01824,0.01648 -0.0082,0.03307 -0.00684,0.04895c0.02029,0.01538 0.05316,0.0009 0.05789,-0.02363c0.00751,-0.02694 0.00574,-0.05557 0.00207,-0.08296c-0.00197,-0.01841 -0.01799,-0.03698 -0.03785,-0.03184c-0.02089,0.00474 -0.03132,0.0265 -0.03489,0.0458c-0.00439,0.01414 -0.00579,-0.01352 -0.00921,-0.01805c-0.00712,-0.0227 -0.01953,-0.04498 -0.03864,-0.05929c-0.00197,0.00612 -0.00018,0.01375 -0.0008,0.02051c-0.00015,0.05545 -0.0003,0.11091 -0.00046,0.16636c-0.01091,0.00317 -0.01662,-0.00237 -0.01421,-0.01285c0,-0.05936 0,-0.11871 0,-0.17807l0,0l0,-0.00001l0,0l0,0z" fill="#fff"/>
   <ellipse stroke="#000" fill="#153723" cx="50.1048" cy="50.18211" id="svg_8" rx="47.5386" ry="47.5386"/>
   <path stroke="#000" fill="#000000" d="m5.21603,65.27038l71.43637,-54.21969l20.55722,39.57266l-91.9936,14.64703l0,0z" id="svg_19"/>
   <path stroke="#000" fill="#000000" d="m5.21603,65.27038l71.43637,-54.21969l20.55722,39.57266l-91.9936,14.64703l0,0z" id="svg_21"/>
   <path stroke="#000" fill="#293414" d="m32.9683,52.93605l38.1127,-28.92727l10.96768,21.11279l-49.08038,7.81448l0,0z" id="svg_22"/>
   <path stroke="#000" fill="#153723" d="m48.90015,45.74102l19.15612,-14.53936l5.51255,10.61166l-24.66867,3.9277l0,0z" id="svg_23"/>
  </g>
 </g>

</svg>